<?xml version="1.0" encoding="UTF-8"?>
<svg width="320px" height="160px" viewBox="0 0 320 160" version="1.1" xmlns="http://www.w3.org/2000/svg" xmlns:xlink="http://www.w3.org/1999/xlink">
    <!-- Generator: Sketch 60.1 (88133) - https://sketch.com -->
    <title>KartLogo_320</title>
    <desc>Created with Sketch.</desc>
    <g id="Page-1" stroke="none" stroke-width="1" fill="none" fill-rule="evenodd">
        <g id="KartLogo_320">
            <rect id="required-bg" fill-opacity="0.01" fill="#FFFFFF" x="0" y="0" width="320" height="160"></rect>
            <rect id="border" stroke="#979797" x="0.5" y="0.5" width="319" height="159"></rect>
            <text id="listingslab" font-family="MarioKartF2, Mario Kart F2" font-size="18" font-weight="normal" fill="#31312E">
                <tspan x="99" y="67">listingslab</tspan>
            </text>
            <text id="kart" font-family="MarioKartF2, Mario Kart F2" font-size="36" font-weight="normal" fill="#000000">
                <tspan x="99" y="100">kart</tspan>
            </text>
            <g id="hipster" transform="translate(26.000000, 15.000000)" fill-rule="nonzero">
                <path d="M68.9479342,109.378821 C68.9479342,92.734861 53.5251358,79.2421875 34.4999201,79.2421875 C15.4747044,79.2421875 0.0515081997,92.734861 0.0515081997,109.378821 C0.0515081997,110.673078 -0.029605828,125.563376 0.0117464215,126.993078 C0.133019846,131.168524 1.3036066,135.242188 8.61102626,135.242188 L60.3685353,135.242188 C67.6970289,135.242188 68.8680132,131.175653 68.9884912,126.997039 C69.0294459,125.567732 68.9479342,110.676247 68.9479342,109.378821" id="Fill-254" fill="#D4461A"></path>
                <path d="M66,95.2251578 C64.3278824,92.487336 62.1853072,90.0021873 59.6667645,87.8497124 L59.6667645,135.242187 L61.4385557,135.242187 C63.3455034,135.242187 64.8354183,134.967732 66,134.489316 L66,95.2251578 Z M52.3332092,83.0596133 C50.3365557,82.0849597 48.2167057,81.2786229 45.9999737,80.6619897 L45.9999737,135.242187 L52.3332092,135.242187 L52.3332092,83.0596133 Z M38.6668172,79.3697123 C37.6238366,79.2869397 36.5680981,79.2421875 35.5000001,79.2421875 C34.4323006,79.2421875 33.3765621,79.2869397 32.3335817,79.3697123 L32.3335817,135.242188 L38.6668172,135.242188 L38.6668172,79.3697123 Z M25.0000262,80.6619897 C22.7832942,81.2782273 20.6638431,82.0849597 18.6667909,83.0596133 L18.6667909,135.242187 L25.0000262,135.242187 L25.0000262,80.6619897 Z M11.3332353,87.8493165 C8.81469282,90.0017917 6.67291504,92.487336 5,95.2247616 L5,134.491296 C6.16059477,134.968524 7.64452943,135.242187 9.54111111,135.242187 L11.3332353,135.242187 L11.3332353,87.8493165 L11.3332353,87.8493165 Z" id="Fill-255" fill="#BA2C00"></path>
                <path d="M68.9478737,109.437754 C68.9478737,109.084626 68.9383309,108.733478 68.9248119,108.383122 L0.07499032,108.383122 C0.0614713319,108.733478 0.0515308994,109.084626 0.0515308994,109.437754 C0.0515308994,109.892623 0.0415904665,112.03039 0.0304571821,114.67172 L68.9693453,114.67172 C68.9582118,112.030786 68.9478737,109.893811 68.9478737,109.437754 Z M67.6106868,101.101649 C66.8838422,98.8902474 65.8746895,96.7837551 64.620207,94.8126549 L4.37919763,94.8126549 C3.12511265,96.7837551 2.11595994,98.8902474 1.38871789,101.101649 L67.6106868,101.101649 Z M58.1438163,87.531182 C54.8559189,84.8170089 50.9580766,82.663011 46.6487002,81.2421875 L22.3511021,81.2421875 C18.0417258,82.663011 14.1434857,84.8170089 10.8559858,87.531182 L58.1438163,87.531182 Z M0.00421444047,121.953193 C-0.00214743638,124.500699 -0.00254505368,126.55731 0.0117691692,127.045038 C0.0236976883,127.446067 0.0451690226,127.846305 0.0805569631,128.242188 L68.9204383,128.242188 C68.9558263,127.847888 68.9768997,127.448839 68.9884306,127.048997 C69.0023474,126.561269 69.0023474,124.503074 68.9955879,121.953193 L0.00421444047,121.953193 L0.00421444047,121.953193 Z" id="Fill-256" fill="#BA2C00"></path>
                <path d="M65.8799935,94.6642852 L65.8756076,94.6570663 C65.8181962,94.5640273 65.7603855,94.4709886 65.7017779,94.3779492 L59.6667645,94.3779492 L59.6667645,100.748723 L66,100.748723 L66,94.8615919 L65.8799935,94.6642852 Z M59.6667645,114.495255 L66,114.495255 L66,108.124882 L59.6667645,108.124882 L59.6667645,114.495255 Z M59.6667645,128.242188 L66,128.242188 L66,121.871814 L59.6667645,121.871814 L59.6667645,128.242188 Z M45.9999737,114.495255 L52.3332092,114.495255 L52.3332092,108.124882 L45.9999737,108.124882 L45.9999737,114.495255 Z M32.3335817,114.495255 L38.6668172,114.495255 L38.6668172,108.124882 L32.3335817,108.124882 L32.3335817,114.495255 Z M18.6667909,114.495255 L25.0000262,114.495255 L25.0000262,108.124882 L18.6667909,108.124882 L18.6667909,114.495255 Z M5,114.495255 L11.3332353,114.495255 L11.3332353,108.124882 L5,108.124882 L5,114.495255 Z M45.9999737,100.748723 L52.3332092,100.748723 L52.3332092,94.3779492 L45.9999737,94.3779492 L45.9999737,100.748723 Z M32.3335817,100.748723 L38.6668172,100.748723 L38.6668172,94.3779492 L32.3335817,94.3779492 L32.3335817,100.748723 Z M18.6667909,100.748723 L25.0000262,100.748723 L25.0000262,94.3779492 L18.6667909,94.3779492 L18.6667909,100.748723 Z M11.3332353,94.3779492 L5.29782355,94.3779492 C5.19695424,94.5383617 5.09767973,94.6991751 5,94.8611909 L5,100.748723 L11.3332353,100.748723 L11.3332353,94.3779492 Z M46.7503137,87.0017913 L52.3332092,87.0017913 L52.3332092,82.5423286 L52.1458237,82.4500922 L52.0517321,82.4047759 L51.9576405,82.3594592 L51.8631504,82.3141422 L51.7686599,82.2692268 L51.6737714,82.2247127 L51.6701828,82.2231086 L51.5788824,82.1801983 L51.4835947,82.1360852 L51.3883072,82.0923727 L51.2930195,82.0486605 L51.2814576,82.0434464 L51.1973332,82.0053493 L51.1012485,81.962439 L51.0338695,81.9319602 L51.0055622,81.9191278 L50.9094771,81.8766177 L50.8835622,81.8653894 L50.8129935,81.8345097 L50.7165099,81.7924013 L50.6495294,81.7631265 L50.620026,81.7506942 L50.5231439,81.7089868 L50.4561634,81.6805142 L50.4258626,81.6676807 L50.2863202,81.60873 L50.262,81.5987038 L50.2316992,81.5858714 L50.1340195,81.5453671 L50.0674378,81.5180963 L50.0363397,81.5052639 L49.8979935,81.4487185 L49.8720786,81.4382914 L49.8405817,81.4254586 L49.7421046,81.3857566 L49.6763202,81.3592887 L49.644026,81.3468565 L49.5455489,81.3075555 L49.4797645,81.2818895 L49.4466733,81.2690563 L49.3780981,81.2421875 L49.3737126,81.3440495 C49.2871962,83.2830327 48.320366,85.2829731 46.7503137,87.0017913 Z M21.6143268,81.2453958 L21.5218301,81.2814885 L21.5202353,81.2818895 L21.454451,81.3075555 C21.2901895,81.3725221 21.1267255,81.4382914 20.9636602,81.5048629 L20.9325621,81.5180963 L20.9138235,81.5257164 L20.7686994,81.5858714 L20.738,81.5987038 L20.7196602,81.6063229 L20.5741373,81.6676807 L20.5438366,81.6805142 L20.4772549,81.7089868 L20.3803726,81.7502933 L20.3504706,81.7631265 L20.2834902,81.7920004 L20.1870066,81.8341084 L20.157902,81.8469419 L20.0909216,81.8766177 L19.9948366,81.9191278 L19.9661307,81.9319602 L19.8987517,81.9620381 L19.8026667,82.0053493 L19.7073791,82.0486605 L19.6116928,82.0919717 L19.5239804,82.132476 L19.5164053,82.1360852 L19.4215164,82.1801983 L19.3262288,82.2247127 L19.2317386,82.2692268 L19.1372484,82.3137412 L19.1368497,82.3141422 L19.0427582,82.3590583 L18.9582353,82.3999634 L18.932719,82.411994 C18.8442091,82.4553052 18.754902,82.4986164 18.6667909,82.5423286 L18.6667909,87.0017913 L24.6802746,87.0017913 C22.8654248,85.2508909 21.7020393,83.2244823 21.6175164,81.3167794 L21.6143268,81.2453958 Z M5,128.242188 L11.3332353,128.242188 L11.3332353,121.871814 L5,121.871814 L5,128.242188 Z M18.6667909,128.242188 L25.0000262,128.242188 L25.0000262,121.871814 L18.6667909,121.871814 L18.6667909,128.242188 Z M32.3335817,128.242188 L38.6668172,128.242188 L38.6668172,121.871814 L32.3335817,121.871814 L32.3335817,128.242188 Z M45.9999737,128.242188 L52.3332092,128.242188 L52.3332092,121.871814 L45.9999737,121.871814 L45.9999737,128.242188 Z" id="Fill-257" fill="#992F15"></path>
                <path d="M9.0916647,90.8559223 C13.947201,107.284508 15.6650115,117.720035 16.3480485,135.242188 L21.4122687,135.242188 C21.5961935,122.026101 17.7852558,97.7340253 13.4421937,88.1655126 C12.7300746,86.5596554 11.8709729,87.3788503 10.8169422,88.1494423 C9.86902203,88.8428188 8.65503972,89.3288481 9.0916647,90.8559223 Z M60.897545,90.8559223 C56.0416155,107.284508 54.3241979,117.720035 53.640768,135.242188 L48.576941,135.242188 C48.393016,122.026101 52.2035607,97.7340253 56.5466227,88.1655126 C57.2591349,86.5596554 58.2899783,87.3788503 59.344009,88.1494423 C60.2919291,88.8428188 61.3341698,89.3288481 60.897545,90.8559223 L60.897545,90.8559223 Z" id="Fill-258" fill="#3D3D3D"></path>
                <path d="M17.8484225,32.8786494 C18.2601566,34.7916615 18.4896798,36.9146285 18.4896798,39.1507095 C18.4896798,47.5592311 15.2462469,54.3750313 11.2446445,54.3750313 C7.24382393,54.3750313 4,47.5592311 4,39.1507095 C4,29.2911564 10.5568568,32.8786494 17.8484225,32.8786494 Z M35.0333385,74.7712329 C42.9696806,74.7712329 49.4029781,78.4587419 49.4029781,83.0071073 C49.4029781,87.5550751 42.9696806,91.2421875 35.0333385,91.2421875 C27.0973873,91.2421875 20.6636989,87.5550751 20.6636989,83.0071073 C20.6636989,78.4587419 27.0973873,74.7712329 35.0333385,74.7712329 Z M51.1515774,32.8786494 C50.7398434,34.7916615 50.5103201,36.9146285 50.5103201,39.1507095 C50.5103201,47.5592311 53.7537532,54.3750313 57.7553557,54.3750313 C61.7561762,54.3750313 65,47.5592311 65,39.1507095 C65,29.2911564 58.4431432,32.8786494 51.1515774,32.8786494 L51.1515774,32.8786494 Z" id="Fill-259" fill="#F49A6A"></path>
                <path d="M58.561495,14.2421875 C60.1277639,19.6271219 61,25.6054495 61,31.9008878 C61,36.5655849 60.5381106,41.0562672 59.674665,45.2599645 C58.1079965,52.8888527 56.348741,61.1162872 52.4981968,66.1856969 C43.0454446,78.628324 23.8762316,78.0159041 14.5709164,65.7881193 C10.8018821,60.835248 8.94113876,53.2146842 7.34849905,45.7978635 C6.4127333,41.4399708 7.65775719,36.8640651 7.65775719,31.9999849 C7.65775719,25.7045466 6.78232482,19.6271219 8.34859367,14.2421875 L58.561495,14.2421875" id="Fill-260" fill="#FAB385"></path>
                <path d="M34.0778886,39.6734771 C33.7933783,39.4664321 33.4469496,38.5977517 33.0997373,38.4580814 C32.5377706,38.2324896 31.4016885,38.2919157 30.7374392,38.2919157 C25.1726359,38.2919157 19.6074408,38.2919157 14.0426375,38.2919157 C12.5989237,38.2919157 11.7924191,38.7139542 12.0463623,40.3142945 C12.552681,43.5070264 13.0593916,46.6997586 13.5657103,49.8924905 C13.7777215,51.2290096 14.4235522,51.5284112 15.5396479,51.6097907 C20.0639897,51.9406083 24.5883315,51.9076782 29.1126733,52.2384958 C29.9767854,52.3017072 30.7911277,51.5477151 31.2261229,50.3962875 C32.0471274,48.2232614 32.8681318,46.4136049 33.6887443,44.2405788 C34.2029007,42.8802138 34.1523472,42.4195673 35,42.3264536 C35.8464772,42.2333403 35.7970993,42.8802138 36.3108638,44.2405788 C37.1318682,46.4136049 37.9528727,48.2232614 38.7738771,50.3962875 C39.2088723,51.5477151 40.0232146,52.3017072 40.8873268,52.2384958 C45.4116685,51.9076782 49.9360103,51.9406083 54.4603521,51.6097907 C55.5764479,51.5284112 56.2222787,51.2290096 56.4342898,49.8924905 C56.9406086,46.6997586 57.4473189,43.5070264 57.9536377,40.3142945 C58.2075809,38.7139542 57.4010764,38.2919157 55.9573625,38.2919157 C50.8083522,38.2919157 45.6593414,38.2938082 40.5103307,38.2919157 C40.3269273,38.2919157 39.2417909,38.2483869 38.2875448,38.2423309 C37.4171624,38.2366532 37.2462995,38.400548 37.0691663,38.5617934 C36.7721154,38.8316711 36.487997,39.6318411 35.8582338,39.8513768 C35.5114133,39.9725003 34.3698449,39.8858214 34.0778886,39.6734771" id="Fill-261" fill="#6E4229"></path>
                <path d="M19,84.0242749 C19.1501706,82.9600517 19.5419723,81.9129942 19.9417616,80.8056595 C20.1742067,80.1625749 20.2429017,80.1717556 20.4314138,80.337417 C20.6147339,80.4982875 20.9186696,80.8024651 21.1618982,81.0822935 C24.5259604,84.9531749 30.3806187,89.1789304 35.5,91.4526784 C40.6193811,89.1789304 46.4740395,84.9531749 49.8385011,81.0822935 C50.0817297,80.8024651 50.3856655,80.4982875 50.5689855,80.337417 C50.7574976,80.1717556 50.8261929,80.1625749 51.0582385,80.8056595 C51.458427,81.9129942 51.8502288,82.9600517 52,84.0242749 C48.8464163,91.9875844 45.2874517,95.791403 41.9038197,99.3920377 C40.740796,100.629905 40.2519426,100.58879 39.7958392,98.7852784 C39.0186261,95.7139616 37.5520659,93.875323 35.5,92.425489 C33.4483335,93.875323 31.981374,95.7139616 31.2045603,98.7852784 C30.7480575,100.58879 30.2596035,100.629905 29.0961804,99.3920377 C25.7129475,95.791403 22.153983,91.9875844 19,84.0242749" id="Fill-262" fill="#D4461A"></path>
                <path d="M41.3667014,94.2224061 C39.9260312,94.7095234 38.4128723,95.496822 36.953189,96.0118627 C35.2253358,96.6211468 35.1643341,96.4869568 33.4392537,95.4991489 C32.2299149,94.8068689 31.1033641,94.479151 29.8944214,93.786871 C28.0825919,92.7498082 27.8191754,93.1865068 27.6298325,95.1582447 C27.4436585,97.0946896 27.3794878,98.6266261 27.100623,100.522736 C26.7750165,102.732991 27.186976,102.548771 29.1156595,101.703297 C30.5749468,101.063762 31.5933582,100.861701 33.0391776,100.195018 C35.3279296,99.1401154 35.13621,99.4127613 37.4194163,100.706181 C38.5578505,101.351533 39.697077,101.996498 40.8359072,102.64185 C42.1985424,103.414023 42.607729,103.709939 42.6869523,101.853 C42.772909,99.8261899 42.9115494,97.5267347 42.9979024,95.4999247 C43.0319683,94.6940096 42.6580359,93.7857075 41.3667014,94.2224061" id="Fill-263" fill="#2A2A2A"></path>
                <path d="M21.3524249,39.3018415 C24.4069345,39.3018415 28.0737121,39.1856585 30.0909018,39.2775755 C31.4247137,39.3386081 31.5572914,39.4779541 32.0349728,39.8481951 C32.2595514,40.0221018 32.2386604,40.5011721 32.2499094,40.7493475 C32.3226263,42.3483328 24.079106,44.2421875 18.0882014,44.2421875 C12.0976984,44.2421875 12.0117238,42.2104578 12.0117238,40.6114725 C12.0117238,39.9537155 11.8281238,39.5463401 12.9140556,39.3761101 C14.4680269,39.1327145 17.834295,39.3018415 21.3524249,39.3018415 Z M42.0361517,39.2735311 C43.6451629,39.2735311 50.8003409,39.2132335 51.8621677,39.2606628 C52.5640259,39.2922821 52.6355373,39.3669185 52.88623,39.5614145 C53.0039429,39.6522285 52.993899,39.9066541 52.9999057,40.0360731 C53.0364845,40.8780311 42.4178148,42.0828771 39.262064,42.0828771 C37.8941032,42.0828771 37.5096283,41.9575025 37.2854513,41.6174101 C37.0648903,41.2813621 36.7430879,39.4455995 37.5911836,39.3128715 C38.409951,39.1845555 40.1828765,39.2735311 42.0361517,39.2735311 L42.0361517,39.2735311 Z" id="Fill-264" fill="#835B3E"></path>
                <path d="M5.48567047,22.2522212 C6.91763526,24.4729685 9.69001819,27.674316 13.1044267,29.4295583 C23.1569633,34.5973049 46.2946677,25.4435708 55.2238594,19.5671686 C55.6799935,20.5649651 55.7371602,28.2022085 60.4336206,39.350336 C60.2969006,40.6664678 60.2829085,43.9058074 59.3822341,47.8458041 C57.8339373,54.6164243 53.5620289,67.0530891 48.0484448,71.3034227 C46.3158552,72.6391503 37.6605038,73.5553636 36.7254493,70.2704331 C36.2773107,68.6971541 31.9142554,68.6971541 31.4661168,70.2704331 C30.5310621,73.5553636 21.8757106,72.6391503 20.1431212,71.3034227 C14.6295371,67.0530891 10.3572291,54.6164243 8.80933192,47.8458041 C7.71916774,43.0771761 7.92824579,39.3343392 7.6456106,38.7860512 C7.03836482,37.6070915 7.16069347,43.8130261 7.90865721,48.822405 C8.98882715,56.0557307 11.6680644,66.3892244 15.2155952,74.5203671 C16.585996,77.6613269 18.511273,80.3039884 19.8920676,82.5651276 C20.6540232,83.8124732 24.0848221,84.6363053 28.3219507,84.9998306 C30.2196438,85.1621978 32.2124815,85.2421875 34.1273646,85.2421875 C40.6735462,85.2393818 47.2113329,84.3467638 48.2994982,82.5651276 C49.6798929,80.3039884 51.60557,77.6613269 52.9759706,74.5203671 C56.5235013,66.3892244 59.2027387,56.0557307 60.2829085,48.822405 C60.9769038,44.1753524 61.5809516,37.8866346 61.8471962,33.2091878 C62.3513023,24.3593917 61.61773,17.49959 59.5033633,13.4312193 C58.0310222,1.6152278 32.8573054,-5.93683284 16.8230577,7.03652274 C15.1364415,8.40144456 14.8018366,8.4782289 12.4600025,8.31986117 C9.50852405,8.12030186 7.56365847,6.87855494 6.12929507,7.21008736 C5.18184769,7.42884278 4.49065086,8.10030595 4.02012528,9.22367693 C2.15401375,13.6807685 2.96833878,18.3470173 5.48567047,22.2522212" id="Fill-265" fill="#412319"></path>
                <path d="M6.33560988,17.2928633 C7.29132627,21.7404595 12.1508945,26.3724738 17.3135716,27.5883247 C24.217453,29.2138224 29.3329535,27.5690743 36.0371214,25.2782851 C38.966386,24.277268 46.3266996,20.1684775 51.3494199,16.636042 C55.191156,13.9340658 57.8931878,14.4091639 54.3466974,11.1473881 C52.4973803,9.44681388 47.456576,8.78922262 40.7343239,9.56578091 C34.4299766,10.2938284 27.6825638,14.1612196 21.5016615,15.6469601 C18.1426977,16.454319 13.7470313,14.5446863 11.028488,14.3002071 C6.40912653,13.8851699 5.35473271,12.7316902 6.33560988,17.2928633" id="Fill-266" fill="#522D21"></path>
                <path d="M29,82.2421875 C25.23525,78.7127761 21.76475,75.7715989 18,72.2421875 C18.7240357,75.6370896 20.1630715,80.1719909 23.7899285,81.2276775 C25.6245715,81.7614034 27.1649643,81.7080696 29,82.2421875" id="Fill-267" fill="#522D21"></path>
                <path d="M32.1593888,59.269619 C31.5163191,59.3466334 30.90165,59.5327514 30.2455972,59.7524687 C26.4983471,61.0062164 24.9306365,61.5226654 21,60.5656491 C21.1801406,62.1984281 24.4660846,63.5835535 26.1080423,63.8885905 C29.1728677,64.4578922 32.1447827,64.4099472 34.6342941,63.2237758 C37.245522,64.4677079 40.8580723,64.2895179 44.2081204,63.3638362 C45.7640652,62.9338395 47.4831098,61.9953218 48,60.4656061 C46.0367105,60.7989574 45.3242622,60.9707294 43.8239014,60.7483694 C42.1243313,60.4965627 40.5192943,60.2526841 39.0233968,59.7524687 C38.269159,59.499907 37.5692884,59.2915154 36.8191081,59.2424377 C36.5919035,59.2273367 35.6279078,59.9008344 34.5831731,59.9061197 C33.4990834,59.9110274 32.3326322,59.2488554 32.1593888,59.269619" id="Fill-268" fill="#412319"></path>
            </g>
        </g>
    </g>
</svg>